<?xml version="1.0" encoding="UTF-8" standalone="no"?>
<svg
   xmlns:dc="http://purl.org/dc/elements/1.1/"
   xmlns:cc="http://creativecommons.org/ns#"
   xmlns:rdf="http://www.w3.org/1999/02/22-rdf-syntax-ns#"
   xmlns:svg="http://www.w3.org/2000/svg"
   xmlns="http://www.w3.org/2000/svg"
   xmlns:sodipodi="http://sodipodi.sourceforge.net/DTD/sodipodi-0.dtd"
   xmlns:inkscape="http://www.inkscape.org/namespaces/inkscape"
   viewBox="0 0 64 64"
   version="1.1"
   id="svg24"
   sodipodi:docname="file-rom-file.svg"
   inkscape:version="1.0 (4035a4fb49, 2020-05-01)">
  <metadata
     id="metadata30">
    <rdf:RDF>
      <cc:Work
         rdf:about="">
        <dc:format>image/svg+xml</dc:format>
        <dc:type
           rdf:resource="http://purl.org/dc/dcmitype/StillImage" />
        <dc:title />
      </cc:Work>
    </rdf:RDF>
  </metadata>
  <defs
     id="defs28" />
  <sodipodi:namedview
     inkscape:document-rotation="0"
     pagecolor="#ffffff"
     bordercolor="#666666"
     borderopacity="1"
     objecttolerance="10"
     gridtolerance="10"
     guidetolerance="10"
     inkscape:pageopacity="0"
     inkscape:pageshadow="2"
     inkscape:window-width="1920"
     inkscape:window-height="1017"
     id="namedview26"
     showgrid="false"
     inkscape:zoom="6.640625"
     inkscape:cx="101.3571"
     inkscape:cy="63.374421"
     inkscape:window-x="-8"
     inkscape:window-y="-8"
     inkscape:window-maximized="1"
     inkscape:current-layer="svg24" />
  <path
     d="m 10.672 0 c -1.375 0 -2.672 1.355 -2.672 2.789 l 0 58.42 c 0 1.355 1.375 2.789 2.672 2.789 l 42.656 0 c 1.297 0 2.672 -1.434 2.672 -2.789 l 0 -43.21 -18 -18 m -27.328 0"
     style="fill:#dcdcdc;fill-opacity:1;stroke:none;fill-rule:nonzero"
     id="path2" />
  <path
     d="m 42 18 14 14 0 -14 z m 0 0"
     style="fill:#000;fill-opacity:0.196;stroke:none;fill-rule:nonzero"
     id="path4" />
  <path
     d="m 38 0 17.984 18 -15.227 0 c -1.348 0 -2.758 -1.426 -2.758 -2.773 m 0 -15.227"
     style="fill:#fff;fill-opacity:0.392;stroke:none;fill-rule:nonzero"
     id="path6" />
  <g
     id="g868"
     transform="matrix(0.81430028,0,0,0.85098199,-16.07715,-30.987608)">
    <path
       style="fill:#888888;fill-opacity:1"
       d="m 49.094118,81.068235 4,6 h -8 l -1,4 h -4.5 l 1.5,-6 h -3 l -3,12 h 2.823529 4.376471 l -1.2,4.000005 h 7 l -5,6 h 6 l 4,-6 h 12 l 4,6 h 6 l -5,-6 h 7 l -1.2,-4.000005 h 7.2 l -3,-12 h -3 l 1.5,6 h -4.5 l -1,-4 h -8 l 4,-6 h -3 l -4,6 h -6 l -4,-6 z"
       id="path6-9" />
    <path
       style="fill:#dcdcdc;fill-opacity:1"
       d="m 65.094118,90.068235 v 5 h 5 v -5 z"
       id="path10-6" />
    <path
       style="fill:#dcdcdc;fill-opacity:1"
       d="m 48.094118,90.068235 v 5 h 5 v -5 z"
       id="path16-8" />
  </g>
</svg>
