<?xml version="1.0" encoding="UTF-8" standalone="no"?>
<svg
   xmlns:dc="http://purl.org/dc/elements/1.1/"
   xmlns:cc="http://creativecommons.org/ns#"
   xmlns:rdf="http://www.w3.org/1999/02/22-rdf-syntax-ns#"
   xmlns:svg="http://www.w3.org/2000/svg"
   xmlns="http://www.w3.org/2000/svg"
   xmlns:sodipodi="http://sodipodi.sourceforge.net/DTD/sodipodi-0.dtd"
   xmlns:inkscape="http://www.inkscape.org/namespaces/inkscape"
   inkscape:version="1.0 (4035a4fb49, 2020-05-01)"
   sodipodi:docname="rom-file.svg"
   id="svg24"
   version="1.1"
   viewBox="0 0 64 64">
  <metadata
     id="metadata30">
    <rdf:RDF>
      <cc:Work
         rdf:about="">
        <dc:format>image/svg+xml</dc:format>
        <dc:type
           rdf:resource="http://purl.org/dc/dcmitype/StillImage" />
        <dc:title></dc:title>
      </cc:Work>
    </rdf:RDF>
  </metadata>
  <defs
     id="defs28" />
  <sodipodi:namedview
     inkscape:current-layer="svg24"
     inkscape:window-maximized="1"
     inkscape:window-y="-8"
     inkscape:window-x="-8"
     inkscape:cy="-38.997148"
     inkscape:cx="87.627932"
     inkscape:zoom="2.3478155"
     showgrid="false"
     id="namedview26"
     inkscape:window-height="1017"
     inkscape:window-width="1920"
     inkscape:pageshadow="2"
     inkscape:pageopacity="0"
     guidetolerance="10"
     gridtolerance="10"
     objecttolerance="10"
     borderopacity="1"
     bordercolor="#666666"
     pagecolor="#ffffff" />
  <path
     id="path2"
     style="fill:#dcdcdc;fill-opacity:1;stroke:none;fill-rule:nonzero"
     d="m 10.672 0 c -1.375 0 -2.672 1.355 -2.672 2.789 l 0 58.42 c 0 1.355 1.375 2.789 2.672 2.789 l 42.656 0 c 1.297 0 2.672 -1.434 2.672 -2.789 l 0 -43.21 -18 -18 m -27.328 0" />
  <path
     id="path4"
     style="fill:#000;fill-opacity:0.196;stroke:none;fill-rule:nonzero"
     d="m 42 18 14 14 0 -14 z m 0 0" />
  <path
     id="path6"
     style="fill:#fff;fill-opacity:0.392;stroke:none;fill-rule:nonzero"
     d="m 38 0 17.984 18 -15.227 0 c -1.348 0 -2.758 -1.426 -2.758 -2.773 m 0 -15.227" />
  <g
     transform="matrix(0.49666472,0,0,0.49666472,11.927957,7.8373659)"
     id="g868">
    <path
       id="path6-9"
       d="m 49.094118,81.068235 4,6 h -8 l -1,4 h -4.5 l 1.5,-6 h -3 l -3,12 h 2.823529 4.376471 l -1.2,4.000005 h 7 l -5,6 h 6 l 4,-6 h 12 l 4,6 h 6 l -5,-6 h 7 l -1.2,-4.000005 h 7.2 l -3,-12 h -3 l 1.5,6 h -4.5 l -1,-4 h -8 l 4,-6 h -3 l -4,6 h -6 l -4,-6 z"
       style="fill:#888888;fill-opacity:1" />
    <path
       id="path10-6"
       d="m 65.094118,90.068235 v 5 h 5 v -5 z"
       style="fill:#dcdcdc;fill-opacity:1" />
    <path
       id="path16-8"
       d="m 48.094118,90.068235 v 5 h 5 v -5 z"
       style="fill:#dcdcdc;fill-opacity:1" />
  </g>
  <g
     transform="translate(2.945877,-0.0752941)"
     id="g923">
    <path
       id="path943"
       style="fill:#888888;fill-opacity:1;fill-rule:evenodd;stroke:none"
       d="m 15.082353,0.28705884 h 6 V 6.2870588 h -6 m 0,-5.99999996" />
    <path
       id="path945"
       style="fill:#888888;fill-opacity:1;fill-rule:evenodd;stroke:none"
       d="m 21.082353,6.2870588 h 6 v 6.0000002 h -6 m 0,-6.0000002" />
    <path
       id="path947"
       style="fill:#888888;fill-opacity:1;fill-rule:evenodd;stroke:none"
       d="m 15.082353,12.287059 h 6 v 6 h -6 m 0,-6" />
    <path
       id="path949"
       style="fill:#888888;fill-opacity:1;fill-rule:evenodd;stroke:none"
       d="m 21.082353,18.287059 h 6 v 6 h -6 m 0,-6" />
    <path
       id="path951"
       style="fill:#888888;fill-opacity:1;fill-rule:evenodd;stroke:none"
       d="m 15.082353,24.287059 h 6 v 6 h -6 m 0,-6" />
    <path
       id="path953"
       style="fill:#888888;fill-opacity:1;fill-rule:evenodd;stroke:none"
       d="m 15.082353,32.287059 h 12 v 12 h -12 m 0,-12" />
  </g>
</svg>
